<?xml version="1.0" encoding="UTF-8" standalone="no"?>
<!DOCTYPE svg PUBLIC "-//W3C//DTD SVG 1.1//EN" "http://www.w3.org/Graphics/SVG/1.1/DTD/svg11.dtd">
<svg width="100%" height="100%" viewBox="0 0 555 282" version="1.1" xmlns="http://www.w3.org/2000/svg" xmlns:xlink="http://www.w3.org/1999/xlink" xml:space="preserve" xmlns:serif="http://www.serif.com/" style="fill-rule:evenodd;clip-rule:evenodd;stroke-linejoin:round;stroke-miterlimit:2;">
    <g transform="matrix(1,0,0,1,-123.91,-252.367)">
        <g transform="matrix(1,0,0,1,-15.8618,-0.5)">
            <path d="M139.772,460L139.772,252.867L220.428,252.867C232.981,252.867 244.123,253.966 253.852,256.163C263.581,258.359 271.897,261.707 278.802,266.205C285.706,270.704 290.989,276.353 294.65,283.153C298.312,289.952 300.143,297.955 300.143,307.161C300.143,315.112 298.469,322.278 295.121,328.659C291.774,335.04 286.438,340.271 279.116,344.351C271.793,348.431 262.064,351.098 249.929,352.354L249.929,355.806C270.014,357.271 284.765,362.292 294.18,370.87C303.595,379.448 308.302,390.956 308.302,405.392C308.302,417.318 305.321,427.309 299.358,435.364C293.395,443.419 284.503,449.539 272.682,453.723C260.861,457.908 246.058,460 228.274,460L139.772,460ZM178.688,427.361L227.96,427.361C232.145,427.361 236.643,427.047 241.455,426.419C246.267,425.792 250.766,424.536 254.95,422.653C259.135,420.77 262.534,417.998 265.15,414.337C267.765,410.675 269.073,405.811 269.073,399.743C269.073,394.513 268.027,390.014 265.934,386.248C263.842,382.482 261.018,379.448 257.461,377.147C253.904,374.845 249.824,373.015 245.221,371.655C240.618,370.295 235.911,369.406 231.098,368.987C226.286,368.569 221.474,368.359 216.662,368.359L178.688,368.359L178.688,427.361ZM178.688,341.369L212.268,341.369C217.917,341.369 223.619,341.003 229.372,340.271C235.126,339.539 240.357,338.179 245.064,336.191C249.772,334.204 253.59,331.327 256.519,327.561C259.448,323.795 260.913,318.773 260.913,312.496C260.913,306.638 259.553,301.878 256.833,298.217C254.113,294.555 250.609,291.783 246.32,289.9C242.03,288.017 237.323,286.762 232.197,286.134C227.071,285.506 221.997,285.193 216.976,285.193L178.688,285.193L178.688,341.369Z" style="fill:rgb(0,77,86);fill-rule:nonzero;stroke:rgb(0,40,33);stroke-width:1px;"/>
        </g>
        <g transform="matrix(1,0,0,1,271.171,-0.5)">
            <path d="M327.133,462.511L322.739,425.792C325.04,426.21 327.29,426.472 329.486,426.576C331.683,426.681 333.305,426.733 334.351,426.733C343.348,426.733 350.252,425.269 355.064,422.34C359.876,419.41 363.172,414.86 364.95,408.688C366.728,402.515 367.618,394.722 367.618,385.307L367.618,252.867L407.475,252.867L407.475,385.621C407.475,401.94 405.226,415.854 400.728,427.361C396.229,438.868 389.063,447.708 379.23,453.88C369.396,460.052 356.424,463.138 340.314,463.138C338.222,463.138 336.234,463.086 334.351,462.981C332.468,462.877 330.062,462.72 327.133,462.511Z" style="fill:rgb(0,77,86);fill-rule:nonzero;stroke:rgb(0,40,33);stroke-width:1px;"/>
        </g>
        <g transform="matrix(1,0,0,1,-118.13,-0.5)">
            <path d="M446.077,460L446.077,252.867L506.334,252.867L563.138,415.121L564.394,415.121L620.257,252.867L678.003,252.867L678.003,460L640.342,460L641.912,293.039L640.029,293.039L579.772,460L543.68,460L484.051,293.039L482.168,293.039L483.424,460L446.077,460Z" style="fill:rgb(0,77,86);fill-rule:nonzero;stroke:rgb(0,40,33);stroke-width:1px;"/>
        </g>
        <path d="M124.41,523L124.41,481.42L139.404,481.42C141.84,481.42 144.003,481.64 145.893,482.081C147.783,482.522 149.39,483.184 150.713,484.066C152.036,484.948 153.044,486.061 153.737,487.405C154.43,488.749 154.776,490.324 154.776,492.13C154.776,493.726 154.451,495.164 153.8,496.445C153.149,497.726 152.109,498.787 150.681,499.627C149.253,500.467 147.363,501.034 145.011,501.328L145.011,501.958C148.917,502.252 151.794,503.26 153.642,504.982C155.49,506.704 156.414,509.056 156.414,512.038C156.414,514.39 155.847,516.374 154.713,517.991C153.579,519.608 151.878,520.847 149.61,521.708C147.342,522.569 144.465,523 140.979,523L124.41,523ZM130.08,518.086L141.168,518.086C142.26,518.086 143.352,518.002 144.444,517.834C145.536,517.666 146.555,517.351 147.5,516.889C148.445,516.427 149.211,515.765 149.799,514.904C150.387,514.043 150.681,512.92 150.681,511.534C150.681,510.232 150.429,509.14 149.925,508.258C149.421,507.376 148.76,506.651 147.94,506.084C147.122,505.517 146.166,505.076 145.074,504.761C143.982,504.446 142.838,504.226 141.641,504.1C140.444,503.974 139.257,503.911 138.081,503.911L130.08,503.911L130.08,518.086ZM130.08,499.564L137.766,499.564C139.152,499.564 140.507,499.48 141.83,499.312C143.153,499.144 144.36,498.818 145.452,498.335C146.544,497.852 147.405,497.17 148.035,496.288C148.665,495.406 148.98,494.272 148.98,492.886C148.98,491.5 148.676,490.376 148.067,489.515C147.458,488.654 146.649,487.993 145.641,487.531C144.633,487.069 143.52,486.754 142.302,486.586C141.084,486.418 139.845,486.334 138.585,486.334L130.08,486.334L130.08,499.564Z" style="fill:rgb(0,77,86);fill-rule:nonzero;stroke:rgb(0,40,33);stroke-width:1px;"/>
        <path d="M177.519,523.819C174.957,523.819 172.7,523.42 170.747,522.622C168.794,521.824 167.156,520.7 165.833,519.251C164.51,517.802 163.512,516.059 162.84,514.022C162.168,511.985 161.832,509.707 161.832,507.187C161.832,504.709 162.158,502.399 162.809,500.257C163.46,498.115 164.426,496.246 165.707,494.65C166.988,493.054 168.573,491.815 170.463,490.933C172.353,490.051 174.537,489.61 177.015,489.61C179.241,489.61 181.236,489.988 183,490.744C184.764,491.5 186.245,492.613 187.442,494.083C188.639,495.553 189.531,497.38 190.119,499.564C190.707,501.748 190.917,504.247 190.749,507.061L165.423,507.376L165.423,503.47L186.969,503.155L185.331,505.675C185.457,503.281 185.205,501.254 184.575,499.595C183.945,497.936 182.99,496.676 181.709,495.815C180.428,494.954 178.863,494.524 177.015,494.524C174.999,494.524 173.277,495.038 171.849,496.067C170.421,497.096 169.329,498.545 168.573,500.414C167.817,502.283 167.439,504.499 167.439,507.061C167.439,510.967 168.311,513.949 170.054,516.007C171.797,518.065 174.327,519.094 177.645,519.094C179.115,519.094 180.375,518.894 181.425,518.495C182.475,518.096 183.326,517.55 183.977,516.857C184.628,516.164 185.132,515.398 185.489,514.558C185.846,513.718 186.066,512.857 186.15,511.975L191.379,512.794C191.169,514.474 190.718,515.986 190.025,517.33C189.332,518.674 188.397,519.829 187.221,520.795C186.045,521.761 184.649,522.506 183.032,523.031C181.415,523.556 179.577,523.819 177.519,523.819Z" style="fill:rgb(0,77,86);fill-rule:nonzero;stroke:rgb(0,40,33);stroke-width:1px;"/>
        <path d="M197.553,523L197.553,506.368L197.49,490.429L202.782,490.429L202.089,503.533L202.908,503.533C203.244,500.467 203.822,497.905 204.641,495.847C205.46,493.789 206.52,492.245 207.822,491.216C209.124,490.187 210.678,489.673 212.484,489.673C213.03,489.673 213.597,489.725 214.185,489.83C214.773,489.935 215.403,490.114 216.075,490.366L215.76,496.414C215.13,496.162 214.49,495.973 213.839,495.847C213.188,495.721 212.589,495.658 212.043,495.658C210.321,495.658 208.862,496.235 207.665,497.39C206.468,498.545 205.512,500.162 204.798,502.241C204.084,504.32 203.58,506.746 203.286,509.518L203.286,523L197.553,523Z" style="fill:rgb(0,77,86);fill-rule:nonzero;stroke:rgb(0,40,33);stroke-width:1px;"/>
        <path d="M221.115,523L221.115,504.982L221.052,490.429L226.344,490.429L225.588,503.092L226.407,503.092C226.869,499.774 227.625,497.128 228.675,495.154C229.725,493.18 231.048,491.762 232.644,490.901C234.24,490.04 236.046,489.61 238.062,489.61C239.91,489.61 241.464,489.925 242.724,490.555C243.984,491.185 245.024,492.056 245.843,493.169C246.662,494.282 247.302,495.521 247.764,496.886C248.226,498.251 248.541,499.69 248.709,501.202C248.877,502.714 248.961,504.184 248.961,505.612L248.961,523L243.228,523L243.228,506.368C243.228,505.318 243.176,504.131 243.071,502.808C242.966,501.485 242.703,500.215 242.283,498.997C241.863,497.779 241.202,496.771 240.299,495.973C239.396,495.175 238.104,494.776 236.424,494.776C234.408,494.776 232.697,495.437 231.29,496.76C229.883,498.083 228.812,499.952 228.077,502.367C227.342,504.782 226.932,507.607 226.848,510.841L226.848,523L221.115,523Z" style="fill:rgb(0,77,86);fill-rule:nonzero;stroke:rgb(0,40,33);stroke-width:1px;"/>
        <path d="M268.428,523.819C265.866,523.819 263.598,523.147 261.624,521.803C259.65,520.459 258.117,518.516 257.025,515.975C255.933,513.434 255.387,510.337 255.387,506.683C255.387,503.197 255.902,500.173 256.931,497.611C257.96,495.049 259.44,493.075 261.372,491.689C263.304,490.303 265.593,489.61 268.239,489.61C270.549,489.61 272.46,490.103 273.972,491.09C275.484,492.077 276.702,493.432 277.626,495.154C278.55,496.876 279.222,498.892 279.642,501.202L280.524,501.202C280.272,499.606 280.062,498.094 279.894,496.666C279.726,495.238 279.59,493.883 279.485,492.602C279.38,491.321 279.327,490.156 279.327,489.106L279.327,479.467L285.123,479.467L285.06,507.754L285.123,523L279.894,523L280.335,513.109L279.516,513.109C279.012,515.377 278.277,517.309 277.311,518.905C276.345,520.501 275.138,521.719 273.689,522.559C272.24,523.399 270.486,523.819 268.428,523.819ZM269.688,518.842C271.284,518.842 272.681,518.464 273.878,517.708C275.075,516.952 276.072,515.975 276.87,514.778C277.668,513.581 278.267,512.3 278.666,510.935C279.065,509.57 279.264,508.321 279.264,507.187L279.264,506.557C279.264,505.759 279.159,504.845 278.949,503.816C278.739,502.787 278.403,501.748 277.941,500.698C277.479,499.648 276.87,498.661 276.114,497.737C275.358,496.813 274.466,496.078 273.437,495.532C272.408,494.986 271.221,494.713 269.877,494.713C268.071,494.713 266.528,495.227 265.247,496.256C263.966,497.285 262.989,498.703 262.317,500.509C261.645,502.315 261.309,504.436 261.309,506.872C261.309,509.266 261.635,511.366 262.286,513.172C262.937,514.978 263.892,516.374 265.152,517.361C266.412,518.348 267.924,518.842 269.688,518.842Z" style="fill:rgb(0,77,86);fill-rule:nonzero;stroke:rgb(0,40,33);stroke-width:1px;"/>
        <path d="M308.37,523L308.37,481.42L317.379,481.42L330.42,516.826L330.609,516.826L343.587,481.42L352.218,481.42L352.218,523L346.737,523L346.926,487.279L346.611,487.279L333.255,523L327.333,523L314.04,487.216L313.725,487.216L313.914,523L308.37,523Z" style="fill:rgb(0,77,86);fill-rule:nonzero;stroke:rgb(0,40,33);stroke-width:1px;"/>
        <path d="M368.535,523.819C366.771,523.819 365.165,523.493 363.716,522.842C362.267,522.191 361.122,521.204 360.282,519.881C359.442,518.558 359.022,516.868 359.022,514.81C359.022,512.752 359.442,511.093 360.282,509.833C361.122,508.573 362.235,507.565 363.621,506.809C365.007,506.053 366.551,505.486 368.252,505.108C369.953,504.73 371.685,504.415 373.449,504.163C375.465,503.869 376.988,503.606 378.017,503.375C379.046,503.144 379.76,502.819 380.159,502.399C380.558,501.979 380.757,501.349 380.757,500.509C380.757,499.291 380.484,498.23 379.938,497.327C379.392,496.424 378.615,495.721 377.607,495.217C376.599,494.713 375.36,494.461 373.89,494.461C372.63,494.461 371.381,494.681 370.142,495.122C368.903,495.563 367.842,496.298 366.96,497.327C366.078,498.356 365.532,499.774 365.322,501.58L360.03,500.257C360.282,498.451 360.818,496.876 361.637,495.532C362.456,494.188 363.474,493.075 364.692,492.193C365.91,491.311 367.307,490.66 368.882,490.24C370.457,489.82 372.105,489.61 373.827,489.61C376.137,489.61 378.09,489.935 379.686,490.586C381.282,491.237 382.574,492.151 383.561,493.327C384.548,494.503 385.272,495.889 385.734,497.485C386.196,499.081 386.427,500.803 386.427,502.651L386.427,509.266C386.469,510.694 386.501,512.195 386.522,513.77C386.543,515.345 386.595,516.91 386.679,518.464C386.763,520.018 386.847,521.53 386.931,523L381.576,523L381.576,513.424L380.946,513.424C380.442,515.314 379.644,517.046 378.552,518.621C377.46,520.196 376.074,521.456 374.394,522.401C372.714,523.346 370.761,523.819 368.535,523.819ZM370.11,519.157C371.202,519.157 372.294,518.947 373.386,518.527C374.478,518.107 375.518,517.477 376.505,516.637C377.492,515.797 378.363,514.747 379.119,513.487C379.875,512.227 380.442,510.757 380.82,509.077L380.82,505.045L382.521,504.982C381.933,505.654 381.093,506.158 380.001,506.494C378.909,506.83 377.691,507.103 376.347,507.313C375.003,507.523 373.659,507.743 372.315,507.974C370.971,508.205 369.722,508.541 368.567,508.982C367.412,509.423 366.488,510.053 365.795,510.872C365.102,511.691 364.755,512.794 364.755,514.18C364.755,515.734 365.238,516.952 366.204,517.834C367.17,518.716 368.472,519.157 370.11,519.157Z" style="fill:rgb(0,77,86);fill-rule:nonzero;stroke:rgb(0,40,33);stroke-width:1px;"/>
        <path d="M394.239,523L394.239,504.982L394.176,490.429L399.468,490.429L398.712,503.092L399.531,503.092C399.993,499.774 400.749,497.128 401.799,495.154C402.849,493.18 404.172,491.762 405.768,490.901C407.364,490.04 409.17,489.61 411.186,489.61C413.034,489.61 414.588,489.925 415.848,490.555C417.108,491.185 418.148,492.056 418.967,493.169C419.786,494.282 420.426,495.521 420.888,496.886C421.35,498.251 421.665,499.69 421.833,501.202C422.001,502.714 422.085,504.184 422.085,505.612L422.085,523L416.352,523L416.352,506.368C416.352,505.318 416.3,504.131 416.195,502.808C416.09,501.485 415.827,500.215 415.407,498.997C414.987,497.779 414.326,496.771 413.423,495.973C412.52,495.175 411.228,494.776 409.548,494.776C407.532,494.776 405.821,495.437 404.414,496.76C403.007,498.083 401.936,499.952 401.201,502.367C400.466,504.782 400.056,507.607 399.972,510.841L399.972,523L394.239,523Z" style="fill:rgb(0,77,86);fill-rule:nonzero;stroke:rgb(0,40,33);stroke-width:1px;"/>
        <path d="M427.062,533.458C426.474,533.458 425.844,533.405 425.172,533.3C424.5,533.195 423.786,533.038 423.03,532.828L422.526,527.536C425.214,528.208 427.167,528.239 428.385,527.63C429.603,527.021 430.212,525.457 430.212,522.937L430.212,490.429L435.945,490.429L435.945,522.244C435.945,524.134 435.756,525.782 435.378,527.189C435,528.596 434.444,529.762 433.709,530.686C432.974,531.61 432.05,532.303 430.937,532.765C429.824,533.227 428.532,533.458 427.062,533.458ZM432.984,485.515C431.724,485.515 430.769,485.242 430.118,484.696C429.467,484.15 429.141,483.373 429.141,482.365C429.141,481.315 429.467,480.517 430.118,479.971C430.769,479.425 431.724,479.152 432.984,479.152C434.286,479.152 435.263,479.425 435.914,479.971C436.565,480.517 436.89,481.315 436.89,482.365C436.89,483.373 436.565,484.15 435.914,484.696C435.263,485.242 434.286,485.515 432.984,485.515Z" style="fill:rgb(0,77,86);fill-rule:nonzero;stroke:rgb(0,40,33);stroke-width:1px;"/>
        <path d="M454.53,523.819C452.808,523.819 451.317,523.535 450.057,522.968C448.797,522.401 447.747,521.603 446.907,520.574C446.067,519.545 445.406,518.338 444.923,516.952C444.44,515.566 444.093,514.033 443.883,512.353C443.673,510.673 443.568,508.93 443.568,507.124L443.568,490.429L449.364,490.429L449.364,506.179C449.364,507.607 449.417,509.056 449.522,510.526C449.627,511.996 449.889,513.35 450.309,514.589C450.729,515.828 451.401,516.815 452.325,517.55C453.249,518.285 454.53,518.653 456.168,518.653C457.596,518.653 458.856,518.306 459.948,517.613C461.04,516.92 461.964,515.923 462.72,514.621C463.476,513.319 464.075,511.723 464.516,509.833C464.957,507.943 465.219,505.822 465.303,503.47L465.303,490.429L471.099,490.429L471.099,523L465.933,523L466.626,510.967L465.807,510.967C465.345,514.033 464.61,516.511 463.602,518.401C462.594,520.291 461.334,521.666 459.822,522.527C458.31,523.388 456.546,523.819 454.53,523.819Z" style="fill:rgb(0,77,86);fill-rule:nonzero;stroke:rgb(0,40,33);stroke-width:1px;"/>
        <path d="M491.511,523.567L490.503,518.086C490.923,518.17 491.333,518.212 491.732,518.212L492.708,518.212C494.85,518.212 496.478,517.844 497.591,517.109C498.704,516.374 499.46,515.272 499.859,513.802C500.258,512.332 500.457,510.505 500.457,508.321L500.457,481.42L506.253,481.42L506.253,508.384C506.253,511.408 505.875,514.064 505.119,516.353C504.363,518.642 503.051,520.427 501.182,521.708C499.313,522.989 496.719,523.63 493.401,523.63C493.107,523.63 492.813,523.619 492.519,523.598C492.225,523.577 491.889,523.567 491.511,523.567Z" style="fill:rgb(0,77,86);fill-rule:nonzero;stroke:rgb(0,40,33);stroke-width:1px;"/>
        <path d="M522.192,523.819C520.428,523.819 518.822,523.493 517.373,522.842C515.924,522.191 514.779,521.204 513.939,519.881C513.099,518.558 512.679,516.868 512.679,514.81C512.679,512.752 513.099,511.093 513.939,509.833C514.779,508.573 515.892,507.565 517.278,506.809C518.664,506.053 520.208,505.486 521.909,505.108C523.61,504.73 525.342,504.415 527.106,504.163C529.122,503.869 530.645,503.606 531.674,503.375C532.703,503.144 533.417,502.819 533.816,502.399C534.215,501.979 534.414,501.349 534.414,500.509C534.414,499.291 534.141,498.23 533.595,497.327C533.049,496.424 532.272,495.721 531.264,495.217C530.256,494.713 529.017,494.461 527.547,494.461C526.287,494.461 525.038,494.681 523.799,495.122C522.56,495.563 521.499,496.298 520.617,497.327C519.735,498.356 519.189,499.774 518.979,501.58L513.687,500.257C513.939,498.451 514.475,496.876 515.294,495.532C516.113,494.188 517.131,493.075 518.349,492.193C519.567,491.311 520.964,490.66 522.539,490.24C524.114,489.82 525.762,489.61 527.484,489.61C529.794,489.61 531.747,489.935 533.343,490.586C534.939,491.237 536.231,492.151 537.218,493.327C538.205,494.503 538.929,495.889 539.391,497.485C539.853,499.081 540.084,500.803 540.084,502.651L540.084,509.266C540.126,510.694 540.158,512.195 540.179,513.77C540.2,515.345 540.252,516.91 540.336,518.464C540.42,520.018 540.504,521.53 540.588,523L535.233,523L535.233,513.424L534.603,513.424C534.099,515.314 533.301,517.046 532.209,518.621C531.117,520.196 529.731,521.456 528.051,522.401C526.371,523.346 524.418,523.819 522.192,523.819ZM523.767,519.157C524.859,519.157 525.951,518.947 527.043,518.527C528.135,518.107 529.175,517.477 530.162,516.637C531.149,515.797 532.02,514.747 532.776,513.487C533.532,512.227 534.099,510.757 534.477,509.077L534.477,505.045L536.178,504.982C535.59,505.654 534.75,506.158 533.658,506.494C532.566,506.83 531.348,507.103 530.004,507.313C528.66,507.523 527.316,507.743 525.972,507.974C524.628,508.205 523.379,508.541 522.224,508.982C521.068,509.423 520.145,510.053 519.452,510.872C518.759,511.691 518.412,512.794 518.412,514.18C518.412,515.734 518.895,516.952 519.861,517.834C520.827,518.716 522.129,519.157 523.767,519.157Z" style="fill:rgb(0,77,86);fill-rule:nonzero;stroke:rgb(0,40,33);stroke-width:1px;"/>
        <path d="M547.896,523L547.896,504.982L547.833,490.429L553.125,490.429L552.369,503.092L553.188,503.092C553.65,499.774 554.406,497.128 555.456,495.154C556.506,493.18 557.829,491.762 559.425,490.901C561.021,490.04 562.827,489.61 564.843,489.61C566.691,489.61 568.245,489.925 569.505,490.555C570.765,491.185 571.805,492.056 572.624,493.169C573.443,494.282 574.083,495.521 574.545,496.886C575.007,498.251 575.322,499.69 575.49,501.202C575.658,502.714 575.742,504.184 575.742,505.612L575.742,523L570.009,523L570.009,506.368C570.009,505.318 569.957,504.131 569.852,502.808C569.747,501.485 569.484,500.215 569.064,498.997C568.644,497.779 567.983,496.771 567.08,495.973C566.177,495.175 564.885,494.776 563.205,494.776C561.189,494.776 559.478,495.437 558.071,496.76C556.664,498.083 555.593,499.952 554.858,502.367C554.123,504.782 553.713,507.607 553.629,510.841L553.629,523L547.896,523Z" style="fill:rgb(0,77,86);fill-rule:nonzero;stroke:rgb(0,40,33);stroke-width:1px;"/>
        <path d="M581.223,523L581.223,517.897L599.367,495.91L599.367,495.343L581.475,495.343L581.475,490.429L606.675,490.429L606.675,495.406L588.342,517.456L588.342,518.086L606.801,518.086L606.801,523L581.223,523Z" style="fill:rgb(0,77,86);fill-rule:nonzero;stroke:rgb(0,40,33);stroke-width:1px;"/>
        <path d="M625.89,523.819C623.328,523.819 621.071,523.42 619.118,522.622C617.165,521.824 615.527,520.7 614.204,519.251C612.881,517.802 611.883,516.059 611.211,514.022C610.539,511.985 610.203,509.707 610.203,507.187C610.203,504.709 610.529,502.399 611.18,500.257C611.831,498.115 612.797,496.246 614.078,494.65C615.359,493.054 616.944,491.815 618.834,490.933C620.724,490.051 622.908,489.61 625.386,489.61C627.612,489.61 629.607,489.988 631.371,490.744C633.135,491.5 634.616,492.613 635.813,494.083C637.01,495.553 637.902,497.38 638.49,499.564C639.078,501.748 639.288,504.247 639.12,507.061L613.794,507.376L613.794,503.47L635.34,503.155L633.702,505.675C633.828,503.281 633.576,501.254 632.946,499.595C632.316,497.936 631.361,496.676 630.08,495.815C628.799,494.954 627.234,494.524 625.386,494.524C623.37,494.524 621.648,495.038 620.22,496.067C618.792,497.096 617.7,498.545 616.944,500.414C616.188,502.283 615.81,504.499 615.81,507.061C615.81,510.967 616.682,513.949 618.425,516.007C620.168,518.065 622.698,519.094 626.016,519.094C627.486,519.094 628.746,518.894 629.796,518.495C630.846,518.096 631.697,517.55 632.348,516.857C632.999,516.164 633.503,515.398 633.86,514.558C634.217,513.718 634.437,512.857 634.521,511.975L639.75,512.794C639.54,514.474 639.089,515.986 638.396,517.33C637.703,518.674 636.768,519.829 635.592,520.795C634.416,521.761 633.02,522.506 631.403,523.031C629.786,523.556 627.948,523.819 625.89,523.819Z" style="fill:rgb(0,77,86);fill-rule:nonzero;stroke:rgb(0,40,33);stroke-width:1px;"/>
        <path d="M645.924,523L645.924,504.982L645.861,490.429L651.153,490.429L650.397,503.092L651.216,503.092C651.678,499.774 652.434,497.128 653.484,495.154C654.534,493.18 655.857,491.762 657.453,490.901C659.049,490.04 660.855,489.61 662.871,489.61C664.719,489.61 666.273,489.925 667.533,490.555C668.793,491.185 669.833,492.056 670.652,493.169C671.471,494.282 672.111,495.521 672.573,496.886C673.035,498.251 673.35,499.69 673.518,501.202C673.686,502.714 673.77,504.184 673.77,505.612L673.77,523L668.037,523L668.037,506.368C668.037,505.318 667.985,504.131 667.88,502.808C667.775,501.485 667.512,500.215 667.092,498.997C666.672,497.779 666.011,496.771 665.108,495.973C664.205,495.175 662.913,494.776 661.233,494.776C659.217,494.776 657.506,495.437 656.099,496.76C654.692,498.083 653.621,499.952 652.886,502.367C652.151,504.782 651.741,507.607 651.657,510.841L651.657,523L645.924,523Z" style="fill:rgb(0,77,86);fill-rule:nonzero;stroke:rgb(0,40,33);stroke-width:1px;"/>
    </g>
</svg>
