<svg width="197" height="138" viewBox="0 0 197 138" fill="none" xmlns="http://www.w3.org/2000/svg">
<rect x="28.5" y="14.5" width="141" height="123" rx="7.5" fill="#D9D9D9" stroke="#0E4243"/>
<path d="M66.6455 104.99C62.4655 104.99 58.2855 104.843 54.1055 104.55C49.9989 104.33 45.7089 103.743 41.2355 102.79V28.87C44.7555 28.21 48.6055 27.7333 52.7855 27.44C56.9655 27.0733 60.8522 26.89 64.4455 26.89C69.2855 26.89 73.7222 27.2567 77.7556 27.99C81.8622 28.65 85.3822 29.8233 88.3155 31.51C91.2489 33.1967 93.5222 35.4333 95.1356 38.22C96.8222 40.9333 97.6656 44.3067 97.6656 48.34C97.6656 54.4267 94.7322 59.23 88.8655 62.75C93.7056 64.5833 97.0056 67.0767 98.7656 70.23C100.526 73.3833 101.406 76.94 101.406 80.9C101.406 88.8933 98.4722 94.9067 92.6056 98.94C86.8122 102.973 78.1589 104.99 66.6455 104.99ZM57.9555 70.78V90.47C59.2022 90.6167 60.5589 90.7267 62.0255 90.8C63.4922 90.8733 65.1055 90.91 66.8655 90.91C71.9989 90.91 76.1422 90.1767 79.2956 88.71C82.4489 87.2433 84.0255 84.53 84.0255 80.57C84.0255 77.05 82.7055 74.5567 80.0655 73.09C77.4255 71.55 73.6489 70.78 68.7355 70.78H57.9555ZM57.9555 57.69H66.3155C71.5955 57.69 75.3722 57.03 77.6455 55.71C79.9189 54.3167 81.0556 52.1167 81.0556 49.11C81.0556 46.03 79.8822 43.8667 77.5355 42.62C75.1889 41.3733 71.7422 40.75 67.1955 40.75C65.7289 40.75 64.1522 40.7867 62.4655 40.86C60.7789 40.86 59.2755 40.9333 57.9555 41.08V57.69ZM156.832 78.37C156.832 82.11 156.392 85.63 155.512 88.93C154.705 92.23 153.238 95.1267 151.112 97.62C149.058 100.04 146.235 101.983 142.642 103.45C139.122 104.843 134.648 105.54 129.222 105.54C124.235 105.54 119.945 104.953 116.352 103.78C112.758 102.533 109.788 101.103 107.442 99.49L113.162 86.18C115.288 87.4267 117.562 88.5267 119.982 89.48C122.402 90.4333 125.042 90.91 127.902 90.91C132.082 90.91 135.088 89.8833 136.922 87.83C138.755 85.7767 139.672 82.33 139.672 77.49V27.77H156.832V78.37ZM45.1377 126.114C44.8717 126.114 44.5804 126.108 44.2637 126.095C43.9597 126.082 43.6494 126.063 43.3327 126.038C43.0287 126.013 42.7247 125.981 42.4207 125.943C42.1167 125.905 41.838 125.854 41.5847 125.791V113.023C41.838 112.96 42.1167 112.909 42.4207 112.871C42.7247 112.833 43.0287 112.801 43.3327 112.776C43.6494 112.751 43.9597 112.732 44.2637 112.719C44.5677 112.706 44.8527 112.7 45.1187 112.7C45.8787 112.7 46.588 112.757 47.2467 112.871C47.918 112.985 48.4944 113.181 48.9757 113.46C49.4697 113.726 49.856 114.081 50.1347 114.524C50.4134 114.967 50.5527 115.512 50.5527 116.158C50.5527 116.88 50.3817 117.475 50.0397 117.944C49.6977 118.4 49.2417 118.742 48.6717 118.97C49.4444 119.198 50.0587 119.559 50.5147 120.053C50.9707 120.547 51.1987 121.244 51.1987 122.143C51.1987 123.46 50.711 124.455 49.7357 125.126C48.773 125.785 47.2404 126.114 45.1377 126.114ZM43.4087 119.863V124.499C43.548 124.512 43.7127 124.524 43.9027 124.537C44.0674 124.55 44.2574 124.562 44.4727 124.575C44.7007 124.575 44.9604 124.575 45.2517 124.575C45.7964 124.575 46.3094 124.543 46.7907 124.48C47.2847 124.404 47.7154 124.277 48.0827 124.1C48.45 123.923 48.7414 123.676 48.9567 123.359C49.1847 123.042 49.2987 122.643 49.2987 122.162C49.2987 121.731 49.2164 121.37 49.0517 121.079C48.887 120.775 48.6464 120.534 48.3297 120.357C48.0257 120.18 47.6584 120.053 47.2277 119.977C46.797 119.901 46.3157 119.863 45.7837 119.863H43.4087ZM43.4087 118.381H45.3467C45.8027 118.381 46.2334 118.349 46.6387 118.286C47.044 118.223 47.3924 118.109 47.6837 117.944C47.9877 117.779 48.222 117.564 48.3867 117.298C48.564 117.032 48.6527 116.696 48.6527 116.291C48.6527 115.911 48.564 115.594 48.3867 115.341C48.2094 115.075 47.9624 114.866 47.6457 114.714C47.3417 114.549 46.9807 114.429 46.5627 114.353C46.1447 114.277 45.7014 114.239 45.2327 114.239C44.764 114.239 44.3967 114.245 44.1307 114.258C43.8647 114.271 43.624 114.29 43.4087 114.315V118.381ZM53.1287 121.079C53.1287 120.205 53.2553 119.445 53.5087 118.799C53.762 118.14 54.0977 117.596 54.5157 117.165C54.9337 116.734 55.415 116.411 55.9597 116.196C56.5043 115.981 57.0617 115.873 57.6317 115.873C58.9617 115.873 59.9813 116.291 60.6907 117.127C61.4 117.95 61.7547 119.211 61.7547 120.908C61.7547 120.984 61.7547 121.085 61.7547 121.212C61.7547 121.326 61.7483 121.434 61.7357 121.535H54.9717C55.0477 122.561 55.3453 123.34 55.8647 123.872C56.384 124.404 57.1947 124.67 58.2967 124.67C58.9173 124.67 59.4367 124.619 59.8547 124.518C60.2853 124.404 60.6083 124.296 60.8237 124.195L61.0707 125.677C60.8553 125.791 60.4753 125.911 59.9307 126.038C59.3987 126.165 58.7907 126.228 58.1067 126.228C57.2453 126.228 56.498 126.101 55.8647 125.848C55.244 125.582 54.731 125.221 54.3257 124.765C53.9203 124.309 53.6163 123.771 53.4137 123.15C53.2237 122.517 53.1287 121.826 53.1287 121.079ZM59.9117 120.11C59.9243 119.312 59.7217 118.66 59.3037 118.153C58.8983 117.634 58.3347 117.374 57.6127 117.374C57.2073 117.374 56.8463 117.456 56.5297 117.621C56.2257 117.773 55.966 117.976 55.7507 118.229C55.5353 118.482 55.3643 118.774 55.2377 119.103C55.1237 119.432 55.0477 119.768 55.0097 120.11H59.9117ZM67.9409 115.911C68.0929 115.911 68.2639 115.924 68.4539 115.949C68.6566 115.962 68.8529 115.987 69.0429 116.025C69.2329 116.05 69.4039 116.082 69.5559 116.12C69.7206 116.145 69.8409 116.171 69.9169 116.196L69.6129 117.735C69.4736 117.684 69.2393 117.627 68.9099 117.564C68.5933 117.488 68.1816 117.45 67.6749 117.45C67.3456 117.45 67.0163 117.488 66.6869 117.564C66.3703 117.627 66.1613 117.672 66.0599 117.697V126H64.2929V116.538C64.7109 116.386 65.2303 116.247 65.8509 116.12C66.4716 115.981 67.1683 115.911 67.9409 115.911ZM71.6221 116.405C72.0274 116.304 72.5657 116.196 73.2371 116.082C73.9084 115.968 74.6811 115.911 75.5551 115.911C76.3404 115.911 76.9927 116.025 77.5121 116.253C78.0314 116.468 78.4431 116.779 78.7471 117.184C79.0637 117.577 79.2854 118.052 79.4121 118.609C79.5387 119.166 79.6021 119.781 79.6021 120.452V126H77.8351V120.832C77.8351 120.224 77.7907 119.705 77.7021 119.274C77.6261 118.843 77.4931 118.495 77.3031 118.229C77.1131 117.963 76.8597 117.773 76.5431 117.659C76.2264 117.532 75.8337 117.469 75.3651 117.469C75.1751 117.469 74.9787 117.475 74.7761 117.488C74.5734 117.501 74.3771 117.52 74.1871 117.545C74.0097 117.558 73.8451 117.577 73.6931 117.602C73.5537 117.627 73.4524 117.646 73.3891 117.659V126H71.6221V116.405ZM88.9162 118.21C88.7009 118.033 88.3905 117.862 87.9852 117.697C87.5799 117.532 87.1365 117.45 86.6552 117.45C86.1485 117.45 85.7115 117.545 85.3442 117.735C84.9895 117.912 84.6982 118.166 84.4702 118.495C84.2422 118.812 84.0775 119.192 83.9762 119.635C83.8749 120.078 83.8242 120.553 83.8242 121.06C83.8242 122.213 84.1092 123.106 84.6792 123.739C85.2492 124.36 86.0092 124.67 86.9592 124.67C87.4405 124.67 87.8395 124.651 88.1562 124.613C88.4855 124.562 88.7389 124.512 88.9162 124.461V118.21ZM88.9162 111.56L90.6832 111.256V125.715C90.2779 125.829 89.7585 125.943 89.1252 126.057C88.4919 126.171 87.7635 126.228 86.9402 126.228C86.1802 126.228 85.4962 126.108 84.8882 125.867C84.2802 125.626 83.7609 125.284 83.3302 124.841C82.8995 124.398 82.5639 123.859 82.3232 123.226C82.0952 122.58 81.9812 121.858 81.9812 121.06C81.9812 120.3 82.0762 119.603 82.2662 118.97C82.4689 118.337 82.7602 117.792 83.1402 117.336C83.5202 116.88 83.9825 116.525 84.5272 116.272C85.0845 116.019 85.7179 115.892 86.4272 115.892C86.9972 115.892 87.4975 115.968 87.9282 116.12C88.3715 116.272 88.7009 116.418 88.9162 116.557V111.56ZM104.559 121.763C104.559 122.396 104.489 122.985 104.35 123.53C104.223 124.075 103.989 124.556 103.647 124.974C103.318 125.379 102.868 125.702 102.298 125.943C101.741 126.171 101.038 126.285 100.189 126.285C99.7585 126.285 99.3595 126.247 98.9921 126.171C98.6375 126.108 98.3145 126.025 98.0231 125.924C97.7318 125.81 97.4785 125.696 97.2631 125.582C97.0478 125.455 96.8768 125.335 96.7501 125.221L97.4721 123.758C97.7381 123.948 98.0801 124.151 98.4981 124.366C98.9288 124.569 99.4608 124.67 100.094 124.67C101.006 124.67 101.671 124.442 102.089 123.986C102.507 123.517 102.716 122.719 102.716 121.592V112.833H104.559V121.763ZM110.962 124.727C111.38 124.727 111.747 124.721 112.064 124.708C112.393 124.683 112.666 124.645 112.881 124.594V121.649C112.754 121.586 112.545 121.535 112.254 121.497C111.975 121.446 111.633 121.421 111.228 121.421C110.962 121.421 110.677 121.44 110.373 121.478C110.082 121.516 109.809 121.598 109.556 121.725C109.315 121.839 109.113 122.004 108.948 122.219C108.783 122.422 108.701 122.694 108.701 123.036C108.701 123.669 108.904 124.113 109.309 124.366C109.714 124.607 110.265 124.727 110.962 124.727ZM110.81 115.873C111.519 115.873 112.115 115.968 112.596 116.158C113.09 116.335 113.483 116.595 113.774 116.937C114.078 117.266 114.293 117.665 114.42 118.134C114.547 118.59 114.61 119.097 114.61 119.654V125.829C114.458 125.854 114.243 125.892 113.964 125.943C113.698 125.981 113.394 126.019 113.052 126.057C112.71 126.095 112.336 126.127 111.931 126.152C111.538 126.19 111.146 126.209 110.753 126.209C110.196 126.209 109.683 126.152 109.214 126.038C108.745 125.924 108.34 125.747 107.998 125.506C107.656 125.253 107.39 124.923 107.2 124.518C107.01 124.113 106.915 123.625 106.915 123.055C106.915 122.51 107.023 122.042 107.238 121.649C107.466 121.256 107.77 120.94 108.15 120.699C108.53 120.458 108.973 120.281 109.48 120.167C109.987 120.053 110.519 119.996 111.076 119.996C111.253 119.996 111.437 120.009 111.627 120.034C111.817 120.047 111.994 120.072 112.159 120.11C112.336 120.135 112.488 120.161 112.615 120.186C112.742 120.211 112.83 120.23 112.881 120.243V119.749C112.881 119.458 112.849 119.173 112.786 118.894C112.723 118.603 112.609 118.349 112.444 118.134C112.279 117.906 112.051 117.729 111.76 117.602C111.481 117.463 111.114 117.393 110.658 117.393C110.075 117.393 109.562 117.437 109.119 117.526C108.688 117.602 108.365 117.684 108.15 117.773L107.941 116.31C108.169 116.209 108.549 116.114 109.081 116.025C109.613 115.924 110.189 115.873 110.81 115.873ZM117.545 116.405C117.95 116.304 118.489 116.196 119.16 116.082C119.831 115.968 120.604 115.911 121.478 115.911C122.263 115.911 122.916 116.025 123.435 116.253C123.954 116.468 124.366 116.779 124.67 117.184C124.987 117.577 125.208 118.052 125.335 118.609C125.462 119.166 125.525 119.781 125.525 120.452V126H123.758V120.832C123.758 120.224 123.714 119.705 123.625 119.274C123.549 118.843 123.416 118.495 123.226 118.229C123.036 117.963 122.783 117.773 122.466 117.659C122.149 117.532 121.757 117.469 121.288 117.469C121.098 117.469 120.902 117.475 120.699 117.488C120.496 117.501 120.3 117.52 120.11 117.545C119.933 117.558 119.768 117.577 119.616 117.602C119.477 117.627 119.375 117.646 119.312 117.659V126H117.545V116.405ZM135.01 117.45C134.744 117.741 134.389 118.153 133.946 118.685C133.515 119.217 133.047 119.806 132.54 120.452C132.046 121.098 131.546 121.776 131.039 122.485C130.545 123.194 130.108 123.872 129.728 124.518H135.162V126H127.619V124.822C127.923 124.265 128.297 123.65 128.74 122.979C129.183 122.308 129.646 121.643 130.127 120.984C130.621 120.313 131.096 119.686 131.552 119.103C132.021 118.508 132.426 118.007 132.768 117.602H127.885V116.12H135.01V117.45ZM136.495 121.079C136.495 120.205 136.622 119.445 136.875 118.799C137.128 118.14 137.464 117.596 137.882 117.165C138.3 116.734 138.781 116.411 139.326 116.196C139.871 115.981 140.428 115.873 140.998 115.873C142.328 115.873 143.348 116.291 144.057 117.127C144.766 117.95 145.121 119.211 145.121 120.908C145.121 120.984 145.121 121.085 145.121 121.212C145.121 121.326 145.115 121.434 145.102 121.535H138.338C138.414 122.561 138.712 123.34 139.231 123.872C139.75 124.404 140.561 124.67 141.663 124.67C142.284 124.67 142.803 124.619 143.221 124.518C143.652 124.404 143.975 124.296 144.19 124.195L144.437 125.677C144.222 125.791 143.842 125.911 143.297 126.038C142.765 126.165 142.157 126.228 141.473 126.228C140.612 126.228 139.864 126.101 139.231 125.848C138.61 125.582 138.097 125.221 137.692 124.765C137.287 124.309 136.983 123.771 136.78 123.15C136.59 122.517 136.495 121.826 136.495 121.079ZM143.278 120.11C143.291 119.312 143.088 118.66 142.67 118.153C142.265 117.634 141.701 117.374 140.979 117.374C140.574 117.374 140.213 117.456 139.896 117.621C139.592 117.773 139.332 117.976 139.117 118.229C138.902 118.482 138.731 118.774 138.604 119.103C138.49 119.432 138.414 119.768 138.376 120.11H143.278ZM147.659 116.405C148.064 116.304 148.603 116.196 149.274 116.082C149.945 115.968 150.718 115.911 151.592 115.911C152.377 115.911 153.03 116.025 153.549 116.253C154.068 116.468 154.48 116.779 154.784 117.184C155.101 117.577 155.322 118.052 155.449 118.609C155.576 119.166 155.639 119.781 155.639 120.452V126H153.872V120.832C153.872 120.224 153.828 119.705 153.739 119.274C153.663 118.843 153.53 118.495 153.34 118.229C153.15 117.963 152.897 117.773 152.58 117.659C152.263 117.532 151.871 117.469 151.402 117.469C151.212 117.469 151.016 117.475 150.813 117.488C150.61 117.501 150.414 117.52 150.224 117.545C150.047 117.558 149.882 117.577 149.73 117.602C149.591 117.627 149.489 117.646 149.426 117.659V126H147.659V116.405Z" fill="#0E4243"/>
</svg>
