<?xml version="1.0" encoding="UTF-8" standalone="no"?>
<!DOCTYPE svg PUBLIC "-//W3C//DTD SVG 1.1//EN" "http://www.w3.org/Graphics/SVG/1.1/DTD/svg11.dtd">
<svg width="100%" height="100%" viewBox="0 0 615 298" version="1.1" xmlns="http://www.w3.org/2000/svg" xmlns:xlink="http://www.w3.org/1999/xlink" xml:space="preserve" xmlns:serif="http://www.serif.com/" style="fill-rule:evenodd;clip-rule:evenodd;stroke-linejoin:round;stroke-miterlimit:2;">
    <g transform="matrix(1,0,0,1,-72.5044,-580)">
        <g transform="matrix(1,0,0,1,-72.105,340)">
            <g transform="matrix(313.837,0,0,313.837,120,460)">
                <path d="M0.311,0.009C0.273,0.009 0.235,0.008 0.198,0.006C0.16,0.003 0.121,-0.002 0.08,-0.011L0.08,-0.683C0.112,-0.689 0.147,-0.694 0.185,-0.697C0.223,-0.7 0.258,-0.701 0.291,-0.701C0.335,-0.701 0.376,-0.698 0.413,-0.692C0.45,-0.685 0.481,-0.674 0.508,-0.659C0.535,-0.644 0.556,-0.624 0.571,-0.599C0.586,-0.574 0.593,-0.543 0.593,-0.506C0.593,-0.451 0.566,-0.407 0.513,-0.375C0.557,-0.358 0.587,-0.336 0.603,-0.307C0.619,-0.278 0.627,-0.246 0.627,-0.21C0.627,-0.137 0.6,-0.083 0.548,-0.046C0.495,-0.009 0.416,0.009 0.311,0.009ZM0.232,-0.302L0.232,-0.123C0.243,-0.122 0.256,-0.121 0.269,-0.12C0.282,-0.119 0.297,-0.119 0.313,-0.119C0.36,-0.119 0.397,-0.126 0.426,-0.139C0.455,-0.152 0.469,-0.177 0.469,-0.213C0.469,-0.245 0.457,-0.268 0.433,-0.282C0.409,-0.295 0.375,-0.302 0.33,-0.302L0.232,-0.302ZM0.232,-0.421L0.308,-0.421C0.356,-0.421 0.39,-0.427 0.411,-0.44C0.432,-0.452 0.442,-0.472 0.442,-0.499C0.442,-0.527 0.431,-0.547 0.41,-0.558C0.389,-0.569 0.357,-0.575 0.316,-0.575C0.303,-0.575 0.288,-0.575 0.273,-0.575C0.258,-0.574 0.244,-0.573 0.232,-0.572L0.232,-0.421Z" style="fill:rgb(65,145,151);fill-rule:nonzero;"/>
            </g>
            <g transform="matrix(313.837,0,0,313.837,330.899,460)">
                <path d="M0.459,-0.233C0.459,-0.199 0.455,-0.167 0.448,-0.137C0.44,-0.107 0.427,-0.081 0.408,-0.059C0.389,-0.036 0.363,-0.019 0.331,-0.006C0.298,0.008 0.257,0.014 0.208,0.014C0.163,0.014 0.124,0.009 0.091,-0.003C0.058,-0.014 0.031,-0.026 0.01,-0.041L0.062,-0.162C0.081,-0.151 0.102,-0.141 0.124,-0.132C0.146,-0.123 0.17,-0.119 0.196,-0.119C0.234,-0.119 0.261,-0.128 0.278,-0.147C0.295,-0.166 0.303,-0.197 0.303,-0.241L0.303,-0.693L0.459,-0.693L0.459,-0.233Z" style="fill:rgb(65,145,151);fill-rule:nonzero;"/>
            </g>
            <g transform="matrix(313.837,0,0,313.837,496.919,460)">
                <path d="M0.264,-0.693C0.276,-0.671 0.29,-0.644 0.306,-0.612C0.321,-0.579 0.337,-0.544 0.355,-0.507C0.372,-0.469 0.388,-0.43 0.405,-0.391C0.422,-0.352 0.437,-0.315 0.452,-0.28C0.467,-0.315 0.482,-0.352 0.499,-0.391C0.516,-0.43 0.533,-0.469 0.55,-0.507C0.567,-0.544 0.583,-0.579 0.599,-0.612C0.614,-0.644 0.628,-0.671 0.64,-0.693L0.782,-0.693C0.789,-0.647 0.795,-0.596 0.801,-0.539C0.806,-0.482 0.811,-0.422 0.816,-0.361C0.82,-0.299 0.824,-0.237 0.828,-0.175C0.831,-0.113 0.834,-0.055 0.837,-0L0.685,-0C0.683,-0.067 0.68,-0.141 0.677,-0.22C0.674,-0.299 0.669,-0.379 0.662,-0.46C0.65,-0.432 0.637,-0.401 0.622,-0.367C0.607,-0.333 0.593,-0.299 0.579,-0.265C0.564,-0.231 0.55,-0.199 0.537,-0.168C0.524,-0.136 0.512,-0.11 0.503,-0.088L0.394,-0.088C0.385,-0.11 0.373,-0.136 0.36,-0.168C0.347,-0.199 0.333,-0.231 0.319,-0.265C0.304,-0.299 0.29,-0.333 0.275,-0.367C0.26,-0.401 0.247,-0.432 0.235,-0.46C0.228,-0.379 0.223,-0.299 0.22,-0.22C0.217,-0.141 0.214,-0.067 0.212,-0L0.06,-0C0.063,-0.055 0.066,-0.113 0.07,-0.175C0.073,-0.237 0.077,-0.299 0.082,-0.361C0.086,-0.422 0.091,-0.482 0.097,-0.539C0.102,-0.596 0.108,-0.647 0.115,-0.693L0.264,-0.693Z" style="fill:rgb(65,145,151);fill-rule:nonzero;"/>
            </g>
            <g transform="matrix(62,0,0,62,139.463,525.736)">
                <path d="M0.292,0.008C0.255,0.008 0.218,0.007 0.181,0.005C0.144,0.002 0.111,-0.003 0.083,-0.01L0.083,-0.683C0.098,-0.686 0.113,-0.688 0.13,-0.691C0.147,-0.693 0.164,-0.695 0.181,-0.696C0.198,-0.697 0.216,-0.698 0.233,-0.699C0.25,-0.7 0.266,-0.7 0.281,-0.7C0.323,-0.7 0.362,-0.697 0.398,-0.691C0.434,-0.684 0.465,-0.674 0.492,-0.659C0.518,-0.644 0.538,-0.625 0.553,-0.601C0.568,-0.577 0.575,-0.547 0.575,-0.512C0.575,-0.479 0.567,-0.451 0.552,-0.428C0.536,-0.405 0.514,-0.386 0.486,-0.372C0.528,-0.358 0.559,-0.337 0.579,-0.31C0.599,-0.283 0.609,-0.248 0.609,-0.206C0.609,-0.135 0.583,-0.081 0.531,-0.046C0.479,-0.01 0.399,0.008 0.292,0.008ZM0.207,-0.312L0.207,-0.101C0.221,-0.1 0.236,-0.099 0.252,-0.098C0.268,-0.097 0.283,-0.097 0.296,-0.097C0.322,-0.097 0.346,-0.099 0.369,-0.102C0.391,-0.105 0.41,-0.111 0.427,-0.12C0.443,-0.128 0.456,-0.139 0.466,-0.153C0.475,-0.167 0.48,-0.185 0.48,-0.207C0.48,-0.246 0.466,-0.274 0.437,-0.289C0.408,-0.304 0.369,-0.312 0.318,-0.312L0.207,-0.312ZM0.207,-0.411L0.296,-0.411C0.344,-0.411 0.382,-0.418 0.409,-0.432C0.436,-0.445 0.45,-0.47 0.45,-0.505C0.45,-0.538 0.436,-0.562 0.408,-0.576C0.379,-0.59 0.342,-0.597 0.297,-0.597C0.278,-0.597 0.261,-0.597 0.246,-0.596C0.231,-0.595 0.218,-0.594 0.207,-0.593L0.207,-0.411Z" style="fill:rgb(65,145,151);fill-rule:nonzero;"/>
            </g>
            <g transform="matrix(62,0,0,62,180.197,525.736)">
                <path d="M0.048,-0.259C0.048,-0.305 0.055,-0.345 0.069,-0.38C0.082,-0.415 0.1,-0.444 0.123,-0.467C0.146,-0.49 0.172,-0.507 0.201,-0.519C0.23,-0.53 0.26,-0.536 0.291,-0.536C0.363,-0.536 0.419,-0.514 0.46,-0.469C0.5,-0.424 0.52,-0.358 0.52,-0.269C0.52,-0.262 0.52,-0.255 0.52,-0.247C0.519,-0.238 0.519,-0.231 0.518,-0.224L0.173,-0.224C0.176,-0.182 0.191,-0.15 0.218,-0.127C0.244,-0.103 0.282,-0.092 0.332,-0.092C0.361,-0.092 0.388,-0.095 0.413,-0.1C0.437,-0.105 0.456,-0.111 0.47,-0.117L0.486,-0.018C0.479,-0.015 0.47,-0.011 0.459,-0.008C0.447,-0.004 0.434,-0.001 0.419,0.003C0.404,0.006 0.387,0.008 0.37,0.01C0.353,0.012 0.335,0.013 0.317,0.013C0.271,0.013 0.231,0.006 0.197,-0.008C0.163,-0.021 0.135,-0.04 0.113,-0.065C0.091,-0.089 0.075,-0.118 0.064,-0.151C0.053,-0.184 0.048,-0.22 0.048,-0.259ZM0.399,-0.313C0.399,-0.33 0.397,-0.345 0.392,-0.361C0.387,-0.376 0.381,-0.389 0.372,-0.4C0.363,-0.411 0.352,-0.419 0.339,-0.426C0.326,-0.432 0.31,-0.435 0.292,-0.435C0.273,-0.435 0.257,-0.432 0.243,-0.425C0.229,-0.418 0.217,-0.408 0.208,-0.397C0.198,-0.386 0.19,-0.373 0.185,-0.358C0.18,-0.343 0.176,-0.328 0.174,-0.313L0.399,-0.313Z" style="fill:rgb(65,145,151);fill-rule:nonzero;"/>
            </g>
            <g transform="matrix(62,0,0,62,215.599,525.736)">
                <path d="M0.375,-0.414C0.365,-0.417 0.351,-0.421 0.334,-0.425C0.316,-0.428 0.295,-0.43 0.272,-0.43C0.259,-0.43 0.245,-0.429 0.23,-0.426C0.215,-0.423 0.204,-0.421 0.198,-0.419L0.198,-0L0.077,-0L0.077,-0.498C0.1,-0.507 0.13,-0.515 0.165,-0.523C0.2,-0.53 0.238,-0.534 0.281,-0.534C0.289,-0.534 0.298,-0.534 0.309,-0.533C0.32,-0.532 0.33,-0.53 0.341,-0.529C0.352,-0.527 0.362,-0.525 0.372,-0.523C0.382,-0.52 0.39,-0.518 0.396,-0.516L0.375,-0.414Z" style="fill:rgb(65,145,151);fill-rule:nonzero;"/>
            </g>
            <g transform="matrix(62,0,0,62,240.585,525.736)">
                <path d="M0.077,-0.506C0.1,-0.513 0.131,-0.519 0.168,-0.525C0.205,-0.531 0.247,-0.534 0.292,-0.534C0.335,-0.534 0.37,-0.528 0.399,-0.517C0.428,-0.505 0.451,-0.489 0.468,-0.468C0.485,-0.447 0.497,-0.421 0.504,-0.392C0.511,-0.362 0.514,-0.329 0.514,-0.294L0.514,-0L0.393,-0L0.393,-0.275C0.393,-0.303 0.391,-0.327 0.388,-0.347C0.384,-0.366 0.378,-0.382 0.37,-0.395C0.361,-0.407 0.35,-0.416 0.336,-0.422C0.321,-0.427 0.304,-0.43 0.283,-0.43C0.268,-0.43 0.252,-0.429 0.235,-0.427C0.218,-0.425 0.206,-0.423 0.198,-0.422L0.198,-0L0.077,-0L0.077,-0.506Z" style="fill:rgb(65,145,151);fill-rule:nonzero;"/>
            </g>
            <g transform="matrix(62,0,0,62,276.855,525.736)">
                <path d="M0.172,-0.263C0.172,-0.21 0.185,-0.168 0.21,-0.138C0.235,-0.107 0.27,-0.092 0.315,-0.092C0.334,-0.092 0.351,-0.093 0.365,-0.095C0.378,-0.096 0.389,-0.098 0.398,-0.1L0.398,-0.4C0.387,-0.407 0.373,-0.414 0.356,-0.421C0.338,-0.427 0.319,-0.43 0.299,-0.43C0.255,-0.43 0.223,-0.415 0.203,-0.385C0.182,-0.355 0.172,-0.314 0.172,-0.263ZM0.519,-0.016C0.495,-0.009 0.465,-0.002 0.429,0.004C0.392,0.01 0.354,0.013 0.314,0.013C0.273,0.013 0.236,0.007 0.203,-0.006C0.17,-0.019 0.142,-0.037 0.12,-0.061C0.097,-0.084 0.079,-0.113 0.067,-0.147C0.054,-0.18 0.048,-0.218 0.048,-0.26C0.048,-0.301 0.053,-0.339 0.064,-0.373C0.074,-0.406 0.089,-0.435 0.109,-0.459C0.129,-0.483 0.153,-0.501 0.182,-0.515C0.211,-0.528 0.244,-0.534 0.281,-0.534C0.306,-0.534 0.329,-0.531 0.348,-0.525C0.367,-0.519 0.384,-0.512 0.398,-0.505L0.398,-0.756L0.519,-0.776L0.519,-0.016Z" style="fill:rgb(65,145,151);fill-rule:nonzero;"/>
            </g>
            <g transform="matrix(62,0,0,62,328.253,525.736)">
                <path d="M0.234,-0.693C0.249,-0.668 0.265,-0.637 0.283,-0.6C0.301,-0.563 0.319,-0.525 0.338,-0.485C0.357,-0.444 0.375,-0.403 0.394,-0.362C0.412,-0.32 0.429,-0.281 0.444,-0.246C0.459,-0.281 0.476,-0.32 0.494,-0.362C0.512,-0.403 0.53,-0.444 0.549,-0.485C0.568,-0.525 0.586,-0.563 0.604,-0.6C0.622,-0.637 0.638,-0.668 0.653,-0.693L0.767,-0.693C0.773,-0.642 0.779,-0.588 0.784,-0.532C0.789,-0.474 0.794,-0.416 0.799,-0.357C0.803,-0.297 0.807,-0.237 0.811,-0.177C0.814,-0.116 0.817,-0.057 0.82,-0L0.696,-0C0.693,-0.081 0.69,-0.164 0.687,-0.249C0.683,-0.334 0.677,-0.417 0.67,-0.497C0.663,-0.482 0.654,-0.463 0.644,-0.442C0.634,-0.421 0.623,-0.398 0.612,-0.373C0.601,-0.347 0.589,-0.322 0.578,-0.295C0.566,-0.268 0.555,-0.243 0.544,-0.218C0.533,-0.193 0.522,-0.169 0.513,-0.148C0.504,-0.126 0.496,-0.107 0.489,-0.092L0.395,-0.092C0.388,-0.107 0.38,-0.126 0.371,-0.148C0.362,-0.17 0.352,-0.194 0.341,-0.219C0.33,-0.244 0.318,-0.269 0.307,-0.296C0.295,-0.323 0.283,-0.348 0.272,-0.373C0.261,-0.398 0.25,-0.421 0.24,-0.443C0.23,-0.464 0.221,-0.482 0.214,-0.497C0.207,-0.417 0.201,-0.334 0.198,-0.249C0.194,-0.164 0.191,-0.081 0.188,-0L0.064,-0C0.067,-0.057 0.07,-0.117 0.074,-0.178C0.077,-0.239 0.081,-0.3 0.086,-0.361C0.09,-0.421 0.095,-0.479 0.1,-0.536C0.105,-0.593 0.111,-0.645 0.117,-0.693L0.234,-0.693Z" style="fill:rgb(65,145,151);fill-rule:nonzero;"/>
            </g>
            <g transform="matrix(62,0,0,62,383.061,525.736)">
                <path d="M0.261,-0.085C0.298,-0.085 0.327,-0.087 0.346,-0.091L0.346,-0.225C0.339,-0.227 0.33,-0.229 0.317,-0.231C0.304,-0.233 0.29,-0.234 0.275,-0.234C0.262,-0.234 0.248,-0.233 0.235,-0.231C0.221,-0.229 0.209,-0.225 0.198,-0.22C0.187,-0.215 0.178,-0.207 0.171,-0.198C0.164,-0.188 0.161,-0.176 0.161,-0.161C0.161,-0.132 0.17,-0.113 0.188,-0.102C0.206,-0.091 0.23,-0.085 0.261,-0.085ZM0.251,-0.536C0.291,-0.536 0.325,-0.531 0.352,-0.521C0.379,-0.511 0.401,-0.497 0.418,-0.479C0.434,-0.461 0.446,-0.439 0.453,-0.414C0.46,-0.388 0.463,-0.36 0.463,-0.329L0.463,-0.012C0.444,-0.008 0.416,-0.003 0.379,0.003C0.341,0.008 0.298,0.011 0.251,0.011C0.22,0.011 0.191,0.008 0.165,0.002C0.139,-0.004 0.117,-0.014 0.099,-0.027C0.08,-0.04 0.066,-0.058 0.056,-0.079C0.045,-0.1 0.04,-0.127 0.04,-0.158C0.04,-0.188 0.046,-0.213 0.058,-0.234C0.069,-0.255 0.085,-0.272 0.105,-0.285C0.125,-0.298 0.148,-0.307 0.175,-0.313C0.201,-0.318 0.228,-0.321 0.257,-0.321C0.27,-0.321 0.284,-0.32 0.299,-0.319C0.314,-0.317 0.329,-0.314 0.346,-0.31L0.346,-0.33C0.346,-0.344 0.344,-0.357 0.341,-0.37C0.338,-0.383 0.332,-0.394 0.324,-0.404C0.315,-0.413 0.304,-0.421 0.291,-0.426C0.277,-0.431 0.26,-0.434 0.239,-0.434C0.211,-0.434 0.185,-0.432 0.162,-0.428C0.139,-0.424 0.12,-0.419 0.105,-0.414L0.09,-0.512C0.105,-0.517 0.128,-0.523 0.157,-0.528C0.186,-0.533 0.218,-0.536 0.251,-0.536Z" style="fill:rgb(65,145,151);fill-rule:nonzero;"/>
            </g>
            <g transform="matrix(62,0,0,62,416.169,525.736)">
                <path d="M0.077,-0.506C0.1,-0.513 0.131,-0.519 0.168,-0.525C0.205,-0.531 0.247,-0.534 0.292,-0.534C0.335,-0.534 0.37,-0.528 0.399,-0.517C0.428,-0.505 0.451,-0.489 0.468,-0.468C0.485,-0.447 0.497,-0.421 0.504,-0.392C0.511,-0.362 0.514,-0.329 0.514,-0.294L0.514,-0L0.393,-0L0.393,-0.275C0.393,-0.303 0.391,-0.327 0.388,-0.347C0.384,-0.366 0.378,-0.382 0.37,-0.395C0.361,-0.407 0.35,-0.416 0.336,-0.422C0.321,-0.427 0.304,-0.43 0.283,-0.43C0.268,-0.43 0.252,-0.429 0.235,-0.427C0.218,-0.425 0.206,-0.423 0.198,-0.422L0.198,-0L0.077,-0L0.077,-0.506Z" style="fill:rgb(65,145,151);fill-rule:nonzero;"/>
            </g>
            <g transform="matrix(62,0,0,62,452.439,525.736)">
                <path d="M0.01,0.186C0.001,0.186 -0.011,0.185 -0.027,0.184C-0.042,0.182 -0.056,0.179 -0.068,0.174L-0.052,0.075C-0.037,0.08 -0.02,0.082 0.001,0.082C0.029,0.082 0.049,0.074 0.06,0.058C0.071,0.041 0.077,0.017 0.077,-0.016L0.077,-0.523L0.198,-0.523L0.198,-0.014C0.198,0.054 0.182,0.104 0.15,0.137C0.117,0.17 0.071,0.186 0.01,0.186ZM0.211,-0.676C0.211,-0.653 0.204,-0.635 0.189,-0.622C0.174,-0.609 0.157,-0.602 0.137,-0.602C0.116,-0.602 0.099,-0.609 0.084,-0.622C0.069,-0.635 0.062,-0.653 0.062,-0.676C0.062,-0.699 0.069,-0.718 0.084,-0.731C0.099,-0.744 0.116,-0.751 0.137,-0.751C0.157,-0.751 0.174,-0.744 0.189,-0.731C0.204,-0.718 0.211,-0.699 0.211,-0.676Z" style="fill:rgb(65,145,151);fill-rule:nonzero;"/>
            </g>
            <g transform="matrix(62,0,0,62,469.489,525.736)">
                <path d="M0.55,-0.262C0.55,-0.221 0.544,-0.183 0.532,-0.149C0.52,-0.115 0.503,-0.086 0.481,-0.062C0.459,-0.038 0.433,-0.019 0.402,-0.006C0.371,0.007 0.336,0.014 0.299,0.014C0.262,0.014 0.228,0.007 0.197,-0.006C0.166,-0.019 0.14,-0.038 0.118,-0.062C0.096,-0.086 0.079,-0.115 0.067,-0.149C0.054,-0.183 0.048,-0.221 0.048,-0.262C0.048,-0.303 0.054,-0.341 0.067,-0.375C0.079,-0.408 0.096,-0.437 0.119,-0.461C0.141,-0.485 0.167,-0.503 0.198,-0.517C0.229,-0.53 0.262,-0.536 0.299,-0.536C0.336,-0.536 0.37,-0.53 0.401,-0.517C0.432,-0.503 0.458,-0.485 0.48,-0.461C0.502,-0.437 0.519,-0.408 0.532,-0.375C0.544,-0.341 0.55,-0.303 0.55,-0.262ZM0.426,-0.262C0.426,-0.314 0.415,-0.355 0.393,-0.386C0.37,-0.416 0.339,-0.431 0.299,-0.431C0.259,-0.431 0.228,-0.416 0.206,-0.386C0.183,-0.355 0.172,-0.314 0.172,-0.262C0.172,-0.209 0.183,-0.168 0.206,-0.137C0.228,-0.106 0.259,-0.091 0.299,-0.091C0.339,-0.091 0.37,-0.106 0.393,-0.137C0.415,-0.168 0.426,-0.209 0.426,-0.262Z" style="fill:rgb(65,145,151);fill-rule:nonzero;"/>
            </g>
            <g transform="matrix(62,0,0,62,506.565,525.736)">
                <path d="M0.506,-0.016C0.483,-0.01 0.452,-0.004 0.415,0.003C0.378,0.009 0.337,0.012 0.292,0.012C0.25,0.012 0.215,0.006 0.187,-0.006C0.158,-0.018 0.136,-0.035 0.119,-0.056C0.101,-0.077 0.089,-0.103 0.082,-0.133C0.075,-0.162 0.071,-0.195 0.071,-0.23L0.071,-0.523L0.192,-0.523L0.192,-0.249C0.192,-0.193 0.2,-0.153 0.217,-0.129C0.233,-0.105 0.261,-0.093 0.302,-0.093C0.317,-0.093 0.332,-0.094 0.349,-0.095C0.365,-0.096 0.377,-0.098 0.385,-0.1L0.385,-0.523L0.506,-0.523L0.506,-0.016Z" style="fill:rgb(65,145,151);fill-rule:nonzero;"/>
            </g>
            <g transform="matrix(62,0,0,62,557.157,525.736)">
                <path d="M0.435,-0.228C0.435,-0.194 0.431,-0.162 0.424,-0.133C0.417,-0.104 0.404,-0.078 0.386,-0.056C0.367,-0.034 0.342,-0.017 0.312,-0.004C0.281,0.009 0.241,0.015 0.194,0.015C0.15,0.015 0.112,0.009 0.08,-0.004C0.047,-0.016 0.022,-0.029 0.005,-0.043L0.05,-0.142C0.067,-0.131 0.087,-0.12 0.112,-0.11C0.136,-0.099 0.161,-0.094 0.186,-0.094C0.229,-0.094 0.26,-0.105 0.279,-0.126C0.298,-0.147 0.308,-0.184 0.308,-0.236L0.308,-0.693L0.435,-0.693L0.435,-0.228Z" style="fill:rgb(65,145,151);fill-rule:nonzero;"/>
            </g>
            <g transform="matrix(62,0,0,62,588.963,525.736)">
                <path d="M0.261,-0.085C0.298,-0.085 0.327,-0.087 0.346,-0.091L0.346,-0.225C0.339,-0.227 0.33,-0.229 0.317,-0.231C0.304,-0.233 0.29,-0.234 0.275,-0.234C0.262,-0.234 0.248,-0.233 0.235,-0.231C0.221,-0.229 0.209,-0.225 0.198,-0.22C0.187,-0.215 0.178,-0.207 0.171,-0.198C0.164,-0.188 0.161,-0.176 0.161,-0.161C0.161,-0.132 0.17,-0.113 0.188,-0.102C0.206,-0.091 0.23,-0.085 0.261,-0.085ZM0.251,-0.536C0.291,-0.536 0.325,-0.531 0.352,-0.521C0.379,-0.511 0.401,-0.497 0.418,-0.479C0.434,-0.461 0.446,-0.439 0.453,-0.414C0.46,-0.388 0.463,-0.36 0.463,-0.329L0.463,-0.012C0.444,-0.008 0.416,-0.003 0.379,0.003C0.341,0.008 0.298,0.011 0.251,0.011C0.22,0.011 0.191,0.008 0.165,0.002C0.139,-0.004 0.117,-0.014 0.099,-0.027C0.08,-0.04 0.066,-0.058 0.056,-0.079C0.045,-0.1 0.04,-0.127 0.04,-0.158C0.04,-0.188 0.046,-0.213 0.058,-0.234C0.069,-0.255 0.085,-0.272 0.105,-0.285C0.125,-0.298 0.148,-0.307 0.175,-0.313C0.201,-0.318 0.228,-0.321 0.257,-0.321C0.27,-0.321 0.284,-0.32 0.299,-0.319C0.314,-0.317 0.329,-0.314 0.346,-0.31L0.346,-0.33C0.346,-0.344 0.344,-0.357 0.341,-0.37C0.338,-0.383 0.332,-0.394 0.324,-0.404C0.315,-0.413 0.304,-0.421 0.291,-0.426C0.277,-0.431 0.26,-0.434 0.239,-0.434C0.211,-0.434 0.185,-0.432 0.162,-0.428C0.139,-0.424 0.12,-0.419 0.105,-0.414L0.09,-0.512C0.105,-0.517 0.128,-0.523 0.157,-0.528C0.186,-0.533 0.218,-0.536 0.251,-0.536Z" style="fill:rgb(65,145,151);fill-rule:nonzero;"/>
            </g>
            <g transform="matrix(62,0,0,62,622.071,525.736)">
                <path d="M0.077,-0.506C0.1,-0.513 0.131,-0.519 0.168,-0.525C0.205,-0.531 0.247,-0.534 0.292,-0.534C0.335,-0.534 0.37,-0.528 0.399,-0.517C0.428,-0.505 0.451,-0.489 0.468,-0.468C0.485,-0.447 0.497,-0.421 0.504,-0.392C0.511,-0.362 0.514,-0.329 0.514,-0.294L0.514,-0L0.393,-0L0.393,-0.275C0.393,-0.303 0.391,-0.327 0.388,-0.347C0.384,-0.366 0.378,-0.382 0.37,-0.395C0.361,-0.407 0.35,-0.416 0.336,-0.422C0.321,-0.427 0.304,-0.43 0.283,-0.43C0.268,-0.43 0.252,-0.429 0.235,-0.427C0.218,-0.425 0.206,-0.423 0.198,-0.422L0.198,-0L0.077,-0L0.077,-0.506Z" style="fill:rgb(65,145,151);fill-rule:nonzero;"/>
            </g>
            <g transform="matrix(62,0,0,62,658.341,525.736)">
                <path d="M0.443,-0.438C0.43,-0.424 0.412,-0.404 0.391,-0.379C0.369,-0.354 0.346,-0.326 0.321,-0.295C0.296,-0.264 0.272,-0.231 0.247,-0.198C0.222,-0.164 0.199,-0.132 0.179,-0.101L0.449,-0.101L0.449,-0L0.033,-0L0.033,-0.075C0.048,-0.102 0.066,-0.131 0.088,-0.162C0.11,-0.193 0.133,-0.225 0.156,-0.257C0.179,-0.288 0.203,-0.318 0.226,-0.347C0.249,-0.376 0.269,-0.401 0.287,-0.422L0.046,-0.422L0.046,-0.523L0.443,-0.523L0.443,-0.438Z" style="fill:rgb(65,145,151);fill-rule:nonzero;"/>
            </g>
            <g transform="matrix(62,0,0,62,687.295,525.736)">
                <path d="M0.048,-0.259C0.048,-0.305 0.055,-0.345 0.069,-0.38C0.082,-0.415 0.1,-0.444 0.123,-0.467C0.146,-0.49 0.172,-0.507 0.201,-0.519C0.23,-0.53 0.26,-0.536 0.291,-0.536C0.363,-0.536 0.419,-0.514 0.46,-0.469C0.5,-0.424 0.52,-0.358 0.52,-0.269C0.52,-0.262 0.52,-0.255 0.52,-0.247C0.519,-0.238 0.519,-0.231 0.518,-0.224L0.173,-0.224C0.176,-0.182 0.191,-0.15 0.218,-0.127C0.244,-0.103 0.282,-0.092 0.332,-0.092C0.361,-0.092 0.388,-0.095 0.413,-0.1C0.437,-0.105 0.456,-0.111 0.47,-0.117L0.486,-0.018C0.479,-0.015 0.47,-0.011 0.459,-0.008C0.447,-0.004 0.434,-0.001 0.419,0.003C0.404,0.006 0.387,0.008 0.37,0.01C0.353,0.012 0.335,0.013 0.317,0.013C0.271,0.013 0.231,0.006 0.197,-0.008C0.163,-0.021 0.135,-0.04 0.113,-0.065C0.091,-0.089 0.075,-0.118 0.064,-0.151C0.053,-0.184 0.048,-0.22 0.048,-0.259ZM0.399,-0.313C0.399,-0.33 0.397,-0.345 0.392,-0.361C0.387,-0.376 0.381,-0.389 0.372,-0.4C0.363,-0.411 0.352,-0.419 0.339,-0.426C0.326,-0.432 0.31,-0.435 0.292,-0.435C0.273,-0.435 0.257,-0.432 0.243,-0.425C0.229,-0.418 0.217,-0.408 0.208,-0.397C0.198,-0.386 0.19,-0.373 0.185,-0.358C0.18,-0.343 0.176,-0.328 0.174,-0.313L0.399,-0.313Z" style="fill:rgb(65,145,151);fill-rule:nonzero;"/>
            </g>
            <g transform="matrix(62,0,0,62,722.697,525.736)">
                <path d="M0.077,-0.506C0.1,-0.513 0.131,-0.519 0.168,-0.525C0.205,-0.531 0.247,-0.534 0.292,-0.534C0.335,-0.534 0.37,-0.528 0.399,-0.517C0.428,-0.505 0.451,-0.489 0.468,-0.468C0.485,-0.447 0.497,-0.421 0.504,-0.392C0.511,-0.362 0.514,-0.329 0.514,-0.294L0.514,-0L0.393,-0L0.393,-0.275C0.393,-0.303 0.391,-0.327 0.388,-0.347C0.384,-0.366 0.378,-0.382 0.37,-0.395C0.361,-0.407 0.35,-0.416 0.336,-0.422C0.321,-0.427 0.304,-0.43 0.283,-0.43C0.268,-0.43 0.252,-0.429 0.235,-0.427C0.218,-0.425 0.206,-0.423 0.198,-0.422L0.198,-0L0.077,-0L0.077,-0.506Z" style="fill:rgb(65,145,151);fill-rule:nonzero;"/>
            </g>
        </g>
    </g>
</svg>
